<svg width="50" height="50" viewBox="0 0 50 50" fill="none" xmlns="http://www.w3.org/2000/svg">
<path d="M25 49C35.5167 49 41.363 49 45.1815 45.1815C49 41.363 49 35.5167 49 25C49 14.4833 49 8.63697 45.1815 4.81848C41.363 0.999999 35.5167 1 25 1C14.4833 1 8.63697 0.999999 4.81848 4.81848C0.999999 8.63697 1 14.4833 1 25C1 35.5167 0.999999 41.363 4.81848 45.1815C8.63697 49 14.4833 49 25 49Z" stroke="#E5E5E5" stroke-width="2"/>
<path d="M31.584 21.4426H30.2721C28.2636 21.4426 26.6362 23.0701 26.6362 25.0786C26.6362 27.0871 28.2636 28.7146 30.2721 28.7146H31.6364C31.888 28.7146 32.0901 28.5109 32.0901 28.2608V25.0786H30.6765" stroke="black" stroke-width="2" stroke-linecap="round" stroke-linejoin="round"/>
<path d="M22.1521 29.0791C22.1521 29.0791 22.1521 27.808 22.1521 27.2538H23.3665H22.1521H18.714C18.0973 27.2538 17.709 26.5906 18.0188 26.0569C18.8783 24.5778 19.8746 22.9038 20.785 21.429C21.1762 20.7949 22.1521 21.08 22.1521 21.8246V27.2538" stroke="black" stroke-width="2" stroke-linecap="round" stroke-linejoin="round"/>
<path d="M15.7695 32.0978V33.0209C15.7695 37.6363 17.6157 39.4824 22.2311 39.4824H27.7695C32.3849 39.4824 34.2302 37.6363 34.2302 33.0209V32.0978" stroke="#FFCC00" stroke-width="2" stroke-linecap="round" stroke-linejoin="round"/>
<path d="M15.7695 17.9032V16.9801C15.7695 12.3647 17.6157 10.5186 22.2311 10.5186H27.7695C32.3849 10.5186 34.2302 12.3647 34.2302 16.9801V17.9032" stroke="#FFCC00" stroke-width="2" stroke-linecap="round" stroke-linejoin="round"/>
</svg>
