<svg width="48" height="48" viewBox="0 0 48 48" fill="none" xmlns="http://www.w3.org/2000/svg">
<path fill-rule="evenodd" clip-rule="evenodd" d="M3.38154 23.5196C1.53949 25.3616 1.53949 28.3482 3.38154 30.1902L11.2651 38.0738C13.1071 39.9158 16.0937 39.9158 17.9357 38.0738L23.6968 32.3127L30.0643 38.6802C31.9063 40.5223 34.8929 40.5223 36.7349 38.6802L44.6185 30.7967C46.4605 28.9546 46.4605 25.968 44.6185 24.126L31.8835 11.3911C27.3621 6.86965 20.0315 6.86965 15.51 11.3911L3.38154 23.5196ZM36.8889 20.035L30.0643 13.2103C26.5476 9.69368 20.846 9.69368 17.3293 13.2103L5.20082 25.3388C4.36352 26.1761 4.36352 27.5337 5.20082 28.371L13.0843 36.2545C13.9216 37.0918 15.2792 37.0918 16.1165 36.2545L29.4578 22.9131C31.4999 20.871 34.2147 19.9117 36.8889 20.035Z" fill="white"/>
</svg>
