<svg width="48" height="48" viewBox="0 0 48 48" fill="none" xmlns="http://www.w3.org/2000/svg">
<path d="M29.4344 16.979C27.5794 16.979 26.0757 18.4499 26.0757 20.2644C26.0757 21.9555 27.3819 23.3482 29.0612 23.5298V23.5499C29.3426 23.5499 29.9262 23.6999 30.5388 24.0851C31.1404 24.4634 31.7346 25.0472 32.0734 25.8757L32.212 26.2146L32.2175 26.2125C32.7518 28.0472 34.478 29.3906 36.525 29.3906C38.9983 29.3906 41.0033 27.4294 41.0033 25.01C41.0033 24.8775 40.9973 24.7463 40.9855 24.6167L41.002 24.6154C40.6061 19.9681 35.117 16.6061 29.3937 16.9793" stroke="white" stroke-width="1.77081" stroke-linejoin="round"/>
<path d="M18.5688 31.0191C20.4237 31.0191 21.9275 29.5482 21.9275 27.7337C21.9275 26.0426 20.6213 24.6499 18.942 24.4683V24.4483C18.6606 24.4483 18.077 24.2982 17.4644 23.913C16.8628 23.5347 16.2686 22.9509 15.9298 22.1224L15.7912 21.7835L15.7856 21.7856C15.2514 19.9509 13.5252 18.6075 11.4782 18.6075C9.00488 18.6075 6.99989 20.5688 6.99989 22.9881C6.99989 23.1206 7.00591 23.2518 7.01769 23.3814L7.00118 23.3827C7.3971 28.03 12.8862 31.392 18.6095 31.0189" stroke="white" stroke-width="1.77081" stroke-linejoin="round"/>
<path d="M16.9812 18.5696C16.9812 20.4245 18.4521 21.9283 20.2666 21.9283C21.9577 21.9283 23.3504 20.6221 23.532 18.9428H23.5521C23.5521 18.6614 23.7021 18.0778 24.0873 17.4652C24.4656 16.8636 25.0494 16.2694 25.8779 15.9306L26.2168 15.792L26.2147 15.7864C28.0494 15.2522 29.3928 13.526 29.3928 11.479C29.3928 9.00568 27.4316 7.00068 25.0122 7.00068C24.8797 7.00068 24.7485 7.0067 24.6189 7.01849L24.6176 7.00197C19.9703 7.39789 16.6083 12.887 16.9814 18.6103" stroke="white" stroke-width="1.77081" stroke-linejoin="round"/>
<path d="M31.0232 29.4304C31.0232 27.5755 29.5523 26.0717 27.7378 26.0717C26.0467 26.0717 24.654 27.3779 24.4724 29.0572H24.4523C24.4523 29.3386 24.3023 29.9222 23.9171 30.5348C23.5388 31.1364 22.955 31.7306 22.1265 32.0694L21.7876 32.208L21.7897 32.2136C19.955 32.7478 18.6116 34.474 18.6116 36.521C18.6116 38.9943 20.5728 40.9993 22.9922 40.9993C23.1247 40.9993 23.2559 40.9933 23.3855 40.9815L23.3868 40.998C28.0341 40.6021 31.3961 35.113 31.0229 29.3897" stroke="white" stroke-width="1.77081" stroke-linejoin="round"/>
<rect x="9.7798" y="21.6372" width="3.93121" height="3.93121" fill="white" stroke="white" stroke-width="0.81252"/>
<path d="M21.4569 13.2256L23.6256 9.4692L25.7943 13.2256H21.4569Z" fill="white" stroke="white" stroke-width="0.81252"/>
<circle cx="36.0274" cy="24.414" r="2.08131" fill="white" stroke="white" stroke-width="0.81252"/>
<path d="M22.0254 34.0486L25.9782 38.0015" stroke="white" stroke-width="1.41665" stroke-linecap="round" stroke-linejoin="round"/>
<path d="M25.9797 34.0486L22.0269 38.0015" stroke="white" stroke-width="1.41665" stroke-linecap="round" stroke-linejoin="round"/>
</svg>
