<svg width="48" height="48" viewBox="0 0 48 48" fill="none" xmlns="http://www.w3.org/2000/svg">
<path d="M34.2664 30.5114C34.2652 30.9075 34.1092 31.2871 33.8324 31.5672C33.5556 31.8473 33.1806 32.0052 32.7892 32.0064H30.2639V34.2925H32.7892C33.78 34.2925 34.7302 33.8941 35.4309 33.185C36.1315 32.4759 36.5251 31.5142 36.5251 30.5114V25.5416H34.2664V30.5114Z" fill="white"/>
<path d="M39.0906 22.1315H29.7938C29.0222 22.1315 28.2822 22.4417 27.7366 22.9939C27.191 23.546 26.8845 24.2949 26.8845 25.0758V34.4805C26.8845 34.8671 26.9598 35.25 27.106 35.6072C27.2522 35.9644 27.4665 36.289 27.7366 36.5624C28.0068 36.8359 28.3275 37.0527 28.6804 37.2007C29.0334 37.3487 29.4117 37.4248 29.7938 37.4248H39.0906C39.8622 37.4248 40.6022 37.1146 41.1478 36.5624C41.6934 36.0103 41.9999 35.2614 41.9999 34.4805V25.0758C41.9999 24.2949 41.6934 23.546 41.1478 22.9939C40.6022 22.4417 39.8622 22.1315 39.0906 22.1315ZM39.7412 34.4759C39.7412 34.6505 39.6726 34.818 39.5506 34.9414C39.4286 35.0649 39.2632 35.1343 39.0906 35.1343H29.7938C29.6212 35.1343 29.4558 35.0649 29.3338 34.9414C29.2118 34.818 29.1432 34.6505 29.1432 34.4759V25.0758C29.1432 24.9012 29.2118 24.7338 29.3338 24.6103C29.4558 24.4868 29.6212 24.4175 29.7938 24.4175H39.0906C39.2632 24.4175 39.4286 24.4868 39.5506 24.6103C39.6726 24.7338 39.7412 24.9012 39.7412 25.0758V34.4759Z" fill="white"/>
<path d="M22.6105 26.707H13.4266C12.6406 26.707 11.8869 27.023 11.3311 27.5855C10.7754 28.148 10.4631 28.9108 10.4631 29.7063V39.0012C10.4631 39.7966 10.7754 40.5595 11.3311 41.1219C11.8869 41.6844 12.6406 42.0004 13.4266 42.0004H22.6105C23.3965 42.0004 24.1503 41.6844 24.706 41.1219C25.2618 40.5595 25.574 39.7966 25.574 39.0012V29.7063C25.5746 29.3122 25.4983 28.922 25.3496 28.5578C25.2009 28.1936 24.9826 27.8628 24.7073 27.5841C24.432 27.3055 24.1051 27.0846 23.7453 26.9341C23.3855 26.7836 22.9999 26.7064 22.6105 26.707ZM23.3153 39.0012C23.3153 39.0948 23.297 39.1876 23.2616 39.2741C23.2262 39.3606 23.1743 39.4393 23.1089 39.5055C23.0434 39.5717 22.9657 39.6243 22.8802 39.6601C22.7947 39.6959 22.7031 39.7144 22.6105 39.7144H13.4266C13.334 39.7144 13.2424 39.6959 13.1569 39.6601C13.0714 39.6243 12.9937 39.5717 12.9283 39.5055C12.8628 39.4393 12.8109 39.3606 12.7755 39.2741C12.7401 39.1876 12.7219 39.0948 12.7219 39.0012V29.7063C12.7219 29.5171 12.7961 29.3357 12.9283 29.2019C13.0604 29.0682 13.2397 28.993 13.4266 28.993H22.6105C22.7974 28.993 22.9767 29.0682 23.1089 29.2019C23.241 29.3357 23.3153 29.5171 23.3153 29.7063V39.0012Z" fill="white"/>
<path d="M25.5744 22.0706V16.1819H23.3157V22.0706C23.3163 22.2203 23.2876 22.3686 23.2313 22.507C23.1749 22.6454 23.0921 22.7711 22.9875 22.8769C22.883 22.9828 22.7587 23.0666 22.622 23.1236C22.4852 23.1806 22.3387 23.2096 22.1908 23.209H9.69557C9.39724 23.209 9.11114 23.0891 8.90019 22.8756C8.68924 22.6621 8.57073 22.3725 8.57073 22.0706V9.42443C8.57192 9.12287 8.69081 8.83401 8.9015 8.62077C9.11219 8.40754 9.39761 8.28721 9.69557 8.286H22.1908C22.4891 8.286 22.7753 8.40594 22.9862 8.61944C23.1972 8.83294 23.3157 9.1225 23.3157 9.42443V11.6419H25.5744V9.42443C25.5744 8.97473 25.4869 8.52943 25.3168 8.11396C25.1468 7.69849 24.8975 7.32098 24.5834 7.00299C24.2692 6.68501 23.8962 6.43276 23.4856 6.26067C23.0751 6.08858 22.6352 6 22.1908 6H9.69557C8.79819 6 7.93758 6.36079 7.30304 7.00299C6.6685 7.6452 6.31201 8.51622 6.31201 9.42443V22.0706C6.31201 22.9788 6.6685 23.8498 7.30304 24.492C7.93758 25.1342 8.79819 25.495 9.69557 25.495H22.1908C23.0882 25.495 23.9488 25.1342 24.5834 24.492C25.2179 23.8498 25.5744 22.9788 25.5744 22.0706V22.0706Z" fill="white"/>
<path d="M15.2532 16.5469V22.0836H17.5119V16.5469C17.5131 16.1507 17.6691 15.7711 17.9459 15.491C18.2226 15.2109 18.5977 15.053 18.9891 15.0518H32.7854C33.1776 15.0518 33.5537 15.2092 33.8315 15.4894C34.1092 15.7697 34.2659 16.1499 34.2671 16.5469V21H36.5258V16.5469C36.5258 15.5441 36.1322 14.5823 35.4316 13.8733C34.7309 13.1642 33.7807 12.7658 32.7899 12.7658H18.9891C17.9983 12.7658 17.048 13.1642 16.3474 13.8733C15.6468 14.5823 15.2532 15.5441 15.2532 16.5469V16.5469Z" fill="white"/>
<path d="M17.5119 30.5104V30.1172H15.2532V30.5104C15.2532 31.5132 15.6468 32.4749 16.3474 33.184C17.048 33.8931 17.9983 34.2914 18.9891 34.2914H22.2055V32.0054H18.9891C18.5977 32.0042 18.2226 31.8463 17.9459 31.5662C17.6691 31.2861 17.5131 30.9065 17.5119 30.5104V30.5104Z" fill="white"/>
</svg>
