<svg width="48" height="48" viewBox="0 0 48 48" fill="none" xmlns="http://www.w3.org/2000/svg">
<path d="M27.6618 25.6728C27.6728 24.5584 28.1163 23.4927 28.897 22.7047C29.6777 21.9166 30.7334 21.469 31.8375 21.4579H40.5202V14.1592C40.517 12.7939 39.9783 11.4855 39.0218 10.5201C38.0654 9.55463 36.7692 9.01084 35.4166 9.00763H25.9144V20.9956C25.9097 22.304 25.3927 23.5574 24.4761 24.4825C23.5596 25.4077 22.3179 25.9295 21.0217 25.9344H12.1462V27.4792H21.5038C22.672 27.4808 23.7921 27.9496 24.6187 28.7829C25.4453 29.6161 25.9112 30.7461 25.9144 31.9253V37.6486H27.6678C27.6652 37.6285 27.6652 37.608 27.6678 37.5878L27.6618 25.6728Z" fill="url(#paint0_linear_496_3410)"/>
<path d="M17.2438 9.00164H25.9144V4.93874C25.9097 3.63039 25.3927 2.37699 24.4761 1.45184C23.5596 0.526684 22.3179 0.00481101 21.0218 3.7781e-06H5.11453C3.8142 -0.00161563 2.56632 0.517419 1.64459 1.44326C0.722858 2.36911 0.202539 3.62618 0.197754 4.93874V20.9957C0.202525 22.3051 0.72036 23.5594 1.63818 24.4848C2.55601 25.4101 3.79926 25.9312 5.09645 25.9344H12.1462V14.1533C12.1494 12.789 12.6873 11.4814 13.6424 10.5162C14.5975 9.55095 15.8923 9.00646 17.2438 9.00164Z" fill="url(#paint1_linear_496_3410)"/>
<path d="M25.9144 20.9958V9.00177H17.2438C15.8923 9.00659 14.5975 9.55108 13.6424 10.5163C12.6873 11.4816 12.1494 12.7891 12.1462 14.1534V25.9346H21.0217C22.3179 25.9298 23.5596 25.4079 24.4761 24.4827C25.3927 23.5576 25.9097 22.3042 25.9144 20.9958Z" fill="url(#paint2_linear_496_3410)"/>
<path d="M12.1465 32.4971V27.4793H10.1641C8.99694 27.4825 7.87845 27.952 7.05311 28.7851C6.22778 29.6182 5.7627 30.7472 5.75952 31.9254V43.3721C5.76111 44.5513 6.22548 45.6819 7.05099 46.5163C7.8765 47.3507 8.99589 47.821 10.1641 47.8242H21.5041C22.6729 47.821 23.7929 47.3509 24.6193 46.5167C25.4458 45.6824 25.9115 44.5519 25.9147 43.3721V37.6487H17.2441C15.8925 37.6439 14.5978 37.0994 13.6427 36.1342C12.6876 35.1689 12.1497 33.8614 12.1465 32.4971Z" fill="url(#paint3_linear_496_3410)"/>
<path d="M21.5038 27.4793H12.1462V32.4971C12.1494 33.8614 12.6873 35.1689 13.6424 36.1342C14.5975 37.0994 15.8923 37.6439 17.2438 37.6487H25.9144V31.9254C25.9112 30.7462 25.4453 29.6162 24.6187 28.7829C23.7921 27.9497 22.672 27.4809 21.5038 27.4793Z" fill="url(#paint4_linear_496_3410)"/>
<path d="M43.6412 21.4582H40.52V32.4974C40.5169 33.8627 39.9781 35.1711 39.0217 36.1366C38.0653 37.102 36.769 37.6458 35.4165 37.649H27.6677C27.6851 38.7547 28.1317 39.8094 28.9114 40.5863C29.6911 41.3631 30.7418 41.8001 31.8373 41.8031H43.6412C44.7421 41.7873 45.7933 41.3376 46.5701 40.55C47.3469 39.7624 47.7879 38.6995 47.7988 37.5882V25.6731C47.7879 24.5618 47.3469 23.4989 46.5701 22.7113C45.7933 21.9237 44.7421 21.474 43.6412 21.4582Z" fill="url(#paint5_linear_496_3410)"/>
<path d="M40.5205 32.4974V21.4582H31.8378C30.7337 21.4693 29.678 21.9169 28.8973 22.705C28.1166 23.493 27.6731 24.5587 27.6621 25.6731V37.5882C27.6595 37.6083 27.6595 37.6288 27.6621 37.649H35.4109C36.7645 37.6474 38.0623 37.1043 39.0201 36.1387C39.9778 35.1731 40.5173 33.8637 40.5205 32.4974Z" fill="url(#paint6_linear_496_3410)"/>
<defs>
<linearGradient id="paint0_linear_496_3410" x1="12.1462" y1="23.3251" x2="40.5202" y2="23.3251" gradientUnits="userSpaceOnUse">
<stop offset="0.11" stop-color="#EB589A"/>
<stop offset="0.83" stop-color="#2D2E83"/>
</linearGradient>
<linearGradient id="paint1_linear_496_3410" x1="5.18684" y1="-0.802844" x2="21.1659" y2="26.6137" gradientUnits="userSpaceOnUse">
<stop offset="0.17" stop-color="#36A9E1"/>
<stop offset="0.79" stop-color="#E6007E"/>
</linearGradient>
<linearGradient id="paint2_linear_496_3410" x1="13.7068" y1="26.8469" x2="36.0836" y2="-11.5447" gradientUnits="userSpaceOnUse">
<stop offset="0.11" stop-color="#EB589A"/>
<stop offset="0.85" stop-color="#E30613"/>
</linearGradient>
<linearGradient id="paint3_linear_496_3410" x1="9.76043" y1="48.2743" x2="22.0854" y2="27.1292" gradientUnits="userSpaceOnUse">
<stop offset="0.26" stop-color="#F9B233"/>
<stop offset="0.96" stop-color="#E30613"/>
</linearGradient>
<linearGradient id="paint4_linear_496_3410" x1="12.1462" y1="32.564" x2="40.5201" y2="32.564" gradientUnits="userSpaceOnUse">
<stop offset="0.07" stop-color="#FFDE00"/>
<stop offset="0.83" stop-color="#F49633"/>
</linearGradient>
<linearGradient id="paint5_linear_496_3410" x1="27.1435" y1="25.4542" x2="48.4339" y2="37.6343" gradientUnits="userSpaceOnUse">
<stop offset="0.04" stop-color="#3AAA35"/>
<stop offset="0.84" stop-color="#2D2E83"/>
</linearGradient>
<linearGradient id="paint6_linear_496_3410" x1="16.6054" y1="59.7821" x2="39.3427" y2="20.7668" gradientUnits="userSpaceOnUse">
<stop offset="0.04" stop-color="#3AAA35"/>
<stop offset="0.31" stop-color="#3AA737"/>
<stop offset="0.47" stop-color="#399F3C"/>
<stop offset="0.61" stop-color="#379045"/>
<stop offset="0.73" stop-color="#357C52"/>
<stop offset="0.84" stop-color="#326163"/>
<stop offset="0.95" stop-color="#2F4177"/>
<stop offset="1" stop-color="#2D2E83"/>
</linearGradient>
</defs>
</svg>
