<svg width="48" height="48" viewBox="0 0 48 48" fill="none" xmlns="http://www.w3.org/2000/svg">
<path d="M25.9711 7.00051L25.9786 7.00486L25.9861 7.00909C29.616 9.04445 33.5446 10.498 37.6279 11.3163C38.5099 11.5024 39.301 11.9831 39.8703 12.6777C40.4399 13.3727 40.7536 14.2401 40.7599 15.1362L40.7599 18.2514L40.7599 18.2562C40.7802 22.4026 39.732 26.485 37.7155 30.1128C35.6989 33.7406 32.7814 36.7925 29.2417 38.9762L29.2407 38.9768L26.0674 40.9394L26.0646 40.9411C25.4448 41.3272 24.7283 41.5321 23.9967 41.5321C23.2651 41.5321 22.5485 41.3272 21.9287 40.9411L21.9257 40.9393L18.7506 38.9767L18.7502 38.9765C15.2121 36.7917 12.2963 33.7393 10.2813 30.1116C8.26631 26.4839 7.21943 22.402 7.24055 18.2565H7.24056V18.2514V15.136C7.24698 14.24 7.56059 13.3726 8.13016 12.6777C8.69953 11.9831 9.4906 11.5024 10.3726 11.3163C14.4559 10.498 18.3845 9.04445 22.0144 7.00909L22.0219 7.00486L22.0294 7.00051C22.6269 6.65176 23.3072 6.46777 24.0002 6.46777C24.6933 6.46777 25.3736 6.65176 25.9711 7.00051Z" stroke="white" stroke-width="2"/>
<path d="M16.6636 26.8529V20.2279H31.4136V26.8529C31.4136 30.9259 28.1116 34.2279 24.0386 34.2279C19.9655 34.2279 16.6636 30.9259 16.6636 26.8529Z" stroke="white"/>
<path d="M20.5304 15.0719H18.775C16.8361 15.0719 15.2642 16.6623 15.2642 18.6239V21.7319C15.2642 21.977 15.4608 22.1759 15.703 22.1759H17.8973C19.8362 22.1759 21.4082 20.5855 21.4082 18.6239V15.9599C21.4082 15.4693 21.0154 15.0719 20.5304 15.0719Z" fill="white"/>
<path d="M27.5759 13.2479H22.3199C20.3848 13.2479 18.8159 14.8469 18.8159 16.8191C18.8159 19.7774 21.1693 22.1759 24.0719 22.1759H32.3939C32.6357 22.1759 32.8319 21.9759 32.8319 21.7295V18.6047C32.8319 15.6464 30.4785 13.2479 27.5759 13.2479Z" fill="white"/>
<path d="M16.8381 27.7279V27.7279C15.8098 27.7279 14.9761 26.8942 14.9761 25.8659V25.7279C14.9761 24.6234 15.8715 23.7279 16.9761 23.7279V23.7279" stroke="white" stroke-width="0.977995" stroke-linecap="round"/>
<path d="M31.364 27.7279V27.7279C32.3924 27.7279 33.2261 26.8942 33.2261 25.8659V25.7279C33.2261 24.6234 32.3306 23.7279 31.2261 23.7279V23.7279" stroke="white" stroke-width="0.977995" stroke-linecap="round"/>
<path d="M20.9282 29.28L21.1424 29.4462C22.9088 30.8172 25.3796 30.8172 27.1461 29.4462L27.3602 29.28" stroke="white" stroke-width="0.96" stroke-linecap="round" stroke-linejoin="round"/>
<path d="M20.1602 24.7018V24.6407C20.1602 24.1836 20.5357 23.8156 20.9927 23.8249V23.8249C21.4368 23.8339 21.7922 24.1965 21.7922 24.6407V24.768" stroke="white" stroke-width="0.96" stroke-linecap="round"/>
<path d="M26.4961 24.7018V24.6407C26.4961 24.1836 26.8716 23.8156 27.3286 23.8249V23.8249C27.7728 23.8339 28.1281 24.1965 28.1281 24.6407V24.768" stroke="white" stroke-width="0.96" stroke-linecap="round"/>
</svg>
