<svg width="48" height="48" viewBox="0 0 48 48" fill="none" xmlns="http://www.w3.org/2000/svg">
<g clip-path="url(#clip0_1121_1648)">
<path d="M26.7351 1.67179L26.7421 1.67585L26.7491 1.67979C31.4174 4.2974 36.47 6.16665 41.7214 7.21898C42.945 7.47672 44.0428 8.14328 44.833 9.10734L45.5541 8.51626L44.833 9.10735C45.6233 10.0716 46.0586 11.2757 46.0672 12.5195L46.0672 16.5553L46.0672 16.5599C46.0937 21.9919 44.7205 27.3401 42.0788 32.0926C39.437 36.8451 35.6151 40.843 30.9783 43.7036L30.9774 43.7041L26.8678 46.2458L26.8652 46.2474C26.005 46.7832 25.0105 47.0676 23.9954 47.0676C22.9802 47.0676 21.9858 46.7832 21.1256 46.2474L21.1228 46.2456L17.0108 43.704L17.0105 43.7038C12.3758 40.8419 8.55606 36.8433 5.91636 32.0909C3.27667 27.3385 1.90518 21.9911 1.93286 16.5601V16.5553V12.5195C1.94147 11.2757 2.37672 10.0716 3.1671 9.10734C3.95728 8.14328 5.05503 7.47673 6.2786 7.21899C11.53 6.16665 16.5826 4.29741 21.2509 1.67979L21.2579 1.67585L21.2649 1.67179C22.0942 1.18773 23.0383 0.932434 24 0.932434C24.9617 0.932434 25.9058 1.18773 26.7351 1.67179Z" fill="#00AA5B" stroke="#0D5433" stroke-width="1.86487"/>
<path d="M11.3188 26.5487C11.3188 28.2997 12.7381 29.719 14.4891 29.719H15.5459V23.3784H14.4891C12.7381 23.3784 11.3188 24.7976 11.3188 26.5487Z" fill="#D1AA81"/>
<path d="M32.4541 23.3784V29.719H33.5109C35.2619 29.719 36.6811 28.2997 36.6811 26.5487C36.6811 24.7976 35.2619 23.3784 33.5109 23.3784H32.4541Z" fill="#D1AA81"/>
<path d="M34.4431 19.3587H13.5566V27.4812C13.5566 33.2488 18.2323 37.9244 23.9999 37.9244C29.7675 37.9244 34.4431 33.2488 34.4431 27.4812V19.3587Z" fill="#F2C8A0"/>
<path d="M19.3586 12.3965H17.0379C14.4747 12.3965 12.3965 14.4747 12.3965 17.038V21.0992C12.3965 21.4195 12.6564 21.6794 12.9767 21.6794H15.8776C18.4408 21.6794 20.519 19.6012 20.519 17.038V13.5569C20.519 12.9158 19.9997 12.3965 19.3586 12.3965Z" fill="url(#paint0_linear_1121_1648)"/>
<path d="M28.6417 10.0758H21.6795C19.1163 10.0758 17.0381 12.154 17.0381 14.7172C17.0381 18.5621 20.1554 21.6794 24.0002 21.6794H35.0237C35.3439 21.6794 35.6039 21.4195 35.6039 21.0992V17.0379C35.6039 13.1931 32.4865 10.0758 28.6417 10.0758Z" fill="#2B658B"/>
<path d="M18.9028 24.9089V24.8298C18.9028 24.2378 19.3891 23.7613 19.981 23.7733V23.7733C20.5562 23.785 21.0163 24.2546 21.0163 24.8298V24.9947" stroke="black" stroke-width="1.24324" stroke-linecap="round"/>
<path d="M27.1084 24.9089V24.8298C27.1084 24.2378 27.5947 23.7613 28.1866 23.7733V23.7733C28.7617 23.785 29.2219 24.2546 29.2219 24.8298V24.9947" stroke="black" stroke-width="1.24324" stroke-linecap="round"/>
<path d="M23.9968 33.2829C26.0831 33.2829 27.8463 31.9084 28.4317 30.0153C28.6429 29.3318 28.112 28.6414 27.3973 28.6414H20.5975C19.8758 28.6414 19.3507 29.3423 19.5666 30.031C20.1705 31.9601 21.9674 33.2829 23.9968 33.2829Z" fill="#ED0C6E"/>
<path opacity="0.2" d="M24.4935 33.2539C24.331 33.2713 24.1628 33.2829 23.9945 33.2829C21.9697 33.2829 20.1711 31.96 19.5677 30.028C19.3531 29.3434 19.8752 28.6414 20.6005 28.6414H21.5984C20.879 28.6414 20.351 29.3434 20.5657 30.028C21.1226 31.7976 22.6775 33.0566 24.4935 33.2539Z" fill="black"/>
</g>
<defs>
<linearGradient id="paint0_linear_1121_1648" x1="14.9751" y1="21.6794" x2="14.9971" y2="12.3964" gradientUnits="userSpaceOnUse">
<stop stop-color="#064466"/>
<stop offset="1" stop-color="#2B658B"/>
</linearGradient>
<clipPath id="clip0_1121_1648">
<rect width="48" height="48" fill="white"/>
</clipPath>
</defs>
</svg>
