<svg width="48" height="48" viewBox="0 0 48 48" fill="none" xmlns="http://www.w3.org/2000/svg">
<path d="M12.5713 17.2728C12.5713 16.1683 13.4667 15.2728 14.5713 15.2728H23.6535C28.4735 15.2728 32.3808 19.1802 32.3808 24.0001V24.0001C32.3808 28.82 28.4735 32.7274 23.6535 32.7274H14.5713C13.4667 32.7274 12.5713 31.8319 12.5713 30.7274V17.2728Z" fill="white"/>
<path d="M8 6.09524C6.94803 6.09524 6.09524 6.94803 6.09524 8C6.09524 9.05197 6.94803 9.90476 8 9.90476V6.09524ZM8 38.0952C6.94803 38.0952 6.09524 38.948 6.09524 40C6.09524 41.052 6.94803 41.9048 8 41.9048V38.0952ZM8 9.90476H24.7619V6.09524H8V9.90476ZM38.0952 23.2381V24.7619H41.9048V23.2381H38.0952ZM24.7619 38.0952H8V41.9048H24.7619V38.0952ZM38.0952 24.7619C38.0952 32.1257 32.1257 38.0952 24.7619 38.0952V41.9048C34.2296 41.9048 41.9048 34.2296 41.9048 24.7619H38.0952ZM24.7619 9.90476C32.1257 9.90476 38.0952 15.8743 38.0952 23.2381H41.9048C41.9048 13.7704 34.2296 6.09524 24.7619 6.09524V9.90476Z" fill="white"/>
</svg>
