<svg width="48" height="48" viewBox="0 0 48 48" fill="none" xmlns="http://www.w3.org/2000/svg">
<path d="M16.5713 17.2728C16.5713 16.1683 17.4667 15.2728 18.5713 15.2728H27.6535C32.4735 15.2728 36.3808 19.1802 36.3808 24.0001V24.0001C36.3808 28.82 32.4735 32.7274 27.6535 32.7274H18.5713C17.4667 32.7274 16.5713 31.8319 16.5713 30.7274V17.2728Z" fill="white"/>
<path d="M12 6.09524C10.948 6.09524 10.0952 6.94803 10.0952 8C10.0952 9.05197 10.948 9.90476 12 9.90476V6.09524ZM12 38.0952C10.948 38.0952 10.0952 38.948 10.0952 40C10.0952 41.052 10.948 41.9048 12 41.9048V38.0952ZM12 9.90476H28.7619V6.09524H12V9.90476ZM42.0952 23.2381V24.7619H45.9048V23.2381H42.0952ZM28.7619 38.0952H12V41.9048H28.7619V38.0952ZM42.0952 24.7619C42.0952 32.1257 36.1257 38.0952 28.7619 38.0952V41.9048C38.2296 41.9048 45.9048 34.2296 45.9048 24.7619H42.0952ZM28.7619 9.90476C36.1257 9.90476 42.0952 15.8743 42.0952 23.2381H45.9048C45.9048 13.7704 38.2296 6.09524 28.7619 6.09524V9.90476Z" fill="white"/>
<path d="M3.21295 22.7877C2.54306 22.7877 2 23.3307 2 24.0006C2 24.6705 2.54306 25.2136 3.21295 25.2136H6.78766V28.787C6.78766 29.4569 7.33071 30 8.00061 30C8.6705 30 9.21356 29.4569 9.21356 28.787V25.2136H12.787C13.4569 25.2136 14 24.6705 14 24.0006C14 23.3307 13.4569 22.7877 12.787 22.7877L9.21356 22.7877V19.213C9.21356 18.5431 8.6705 18 8.00061 18C7.33071 18 6.78766 18.5431 6.78766 19.213L6.78766 22.7877H3.21295Z" fill="white"/>
</svg>
