<svg width="42" height="42" viewBox="0 0 42 42" fill="none" xmlns="http://www.w3.org/2000/svg">
<rect x="7.21875" y="15.0938" width="13.125" height="19.6875" rx="3.9375" stroke="#FFCC00" stroke-width="1.96875" stroke-linecap="round"/>
<path d="M11.4191 31.5H16.1441" stroke="#FFCC00" stroke-width="1.96875" stroke-linecap="round" stroke-linejoin="round"/>
<path d="M33.6973 34.7812H31.2715C30.3109 34.7812 29.5312 34.0095 29.5312 33.0586V27.3164C29.5312 26.3655 30.3109 25.5938 31.2715 25.5938H33.6973C34.6579 25.5938 35.4375 26.3655 35.4375 27.3164V33.0586C35.4375 34.0095 34.6579 34.7812 33.6973 34.7812Z" stroke="#FFCC00" stroke-width="1.96875" stroke-linecap="round" stroke-linejoin="round"/>
<path d="M7.21875 13.125V13.125C7.21875 11.2922 7.21875 10.3757 7.47654 9.63903C7.93826 8.31949 8.97574 7.28201 10.2953 6.82029C11.032 6.5625 11.9484 6.5625 13.7812 6.5625H28.0875C30.6602 6.5625 31.9466 6.5625 32.9293 7.06319C33.7936 7.50361 34.4964 8.20636 34.9368 9.07073C35.4375 10.0534 35.4375 11.3398 35.4375 13.9125V22.9688" stroke="black" stroke-width="1.96875" stroke-linecap="round" stroke-linejoin="round"/>
<path d="M22.9688 27.5625H26.9062" stroke="black" stroke-width="1.96875" stroke-linecap="round" stroke-linejoin="round"/>
</svg>
