<svg width="48" height="48" viewBox="0 0 48 48" fill="none" xmlns="http://www.w3.org/2000/svg">
<path d="M6.05931 27.5312C5.72177 25.6169 6.85445 23.7487 8.70784 23.1628L28.4642 16.9172C30.6978 16.2111 33.0424 17.6327 33.4492 19.9396L36.3986 36.6666C36.7361 38.5809 35.6035 40.4491 33.7501 41.035L13.9937 47.2805C11.7601 47.9866 9.41551 46.5651 9.00873 44.2582L6.05931 27.5312Z" fill="#971C39"/>
<circle cx="17.2109" cy="21.5709" r="4.13061" fill="url(#paint0_linear_496_3388)"/>
<circle cx="17.2109" cy="21.5709" r="2.90259" fill="#FFDA00"/>
<circle cx="24.095" cy="13.3102" r="4.13061" fill="url(#paint1_linear_496_3388)"/>
<circle cx="24.095" cy="13.3102" r="2.90259" fill="#FFDA00"/>
<circle cx="14.4574" cy="9.17876" r="2.75374" fill="url(#paint2_linear_496_3388)"/>
<circle cx="14.4575" cy="9.17893" r="1.93506" fill="#FFDA00"/>
<circle cx="21.3412" cy="1.83583" r="1.83583" fill="url(#paint3_linear_496_3388)"/>
<circle cx="21.3413" cy="1.83594" r="1.29004" fill="#FFDA00"/>
<path d="M6.14278 28.0033C5.77109 25.8954 7.1786 23.8853 9.28652 23.5136L32.4414 19.4307C34.5493 19.0591 36.5595 20.4666 36.9311 22.5745L39.8923 39.3681C40.264 41.4761 38.8565 43.4862 36.7486 43.8579L13.5937 47.9407C11.4858 48.3124 9.47564 46.9049 9.10395 44.797L6.14278 28.0033Z" fill="url(#paint4_linear_496_3388)"/>
<path d="M29.124 32.6089C28.7399 30.4307 30.1944 28.3535 32.3725 27.9695L38.2249 26.9375C39.1383 26.7765 40.0094 27.3864 40.1704 28.2998L40.978 32.8799C41.1391 33.7934 40.5292 34.6644 39.6157 34.8255L33.7634 35.8574C31.5852 36.2415 29.5081 34.787 29.124 32.6089Z" fill="url(#paint5_linear_496_3388)"/>
<path d="M34.595 31.6442C34.7437 32.4873 34.1807 33.2914 33.3375 33.4401C32.4944 33.5887 31.6903 33.0257 31.5416 32.1826C31.393 31.3394 31.956 30.5353 32.7991 30.3867C33.6423 30.238 34.4464 30.801 34.595 31.6442Z" fill="url(#paint6_linear_496_3388)"/>
<defs>
<linearGradient id="paint0_linear_496_3388" x1="21.3415" y1="17.4403" x2="13.0803" y2="25.7015" gradientUnits="userSpaceOnUse">
<stop stop-color="#FF9600"/>
<stop offset="1" stop-color="#FFAF00"/>
</linearGradient>
<linearGradient id="paint1_linear_496_3388" x1="28.2256" y1="9.17957" x2="19.9644" y2="17.4408" gradientUnits="userSpaceOnUse">
<stop stop-color="#FF9600"/>
<stop offset="1" stop-color="#FFAF00"/>
</linearGradient>
<linearGradient id="paint2_linear_496_3388" x1="17.2111" y1="6.42502" x2="11.7036" y2="11.9325" gradientUnits="userSpaceOnUse">
<stop stop-color="#FF9600"/>
<stop offset="1" stop-color="#FFAF00"/>
</linearGradient>
<linearGradient id="paint3_linear_496_3388" x1="23.177" y1="0" x2="19.5054" y2="3.67165" gradientUnits="userSpaceOnUse">
<stop stop-color="#FF9600"/>
<stop offset="1" stop-color="#FFAF00"/>
</linearGradient>
<linearGradient id="paint4_linear_496_3388" x1="38.3107" y1="30.3988" x2="7.44378" y2="35.3823" gradientUnits="userSpaceOnUse">
<stop stop-color="#C96678"/>
<stop offset="1" stop-color="#9E314B"/>
</linearGradient>
<linearGradient id="paint5_linear_496_3388" x1="40.5744" y1="30.5899" x2="29.1242" y2="32.6088" gradientUnits="userSpaceOnUse">
<stop stop-color="#292E36"/>
<stop offset="1" stop-color="#373E48"/>
</linearGradient>
<linearGradient id="paint6_linear_496_3388" x1="34.5952" y1="31.6442" x2="31.5419" y2="32.1826" gradientUnits="userSpaceOnUse">
<stop stop-color="#FF9600"/>
<stop offset="1" stop-color="#FFB200"/>
</linearGradient>
</defs>
</svg>
