<svg width="48" height="48" viewBox="0 0 48 48" fill="none" xmlns="http://www.w3.org/2000/svg">
<path d="M5.05831 19.561C4.69424 17.4061 6.07289 15.3512 8.13759 14.9712L30.8177 10.7974C32.8824 10.4175 34.8513 11.8563 35.2154 14.0112L38.1159 31.179C38.4799 33.3339 37.1013 35.3888 35.0366 35.7688L12.3564 39.9426C10.2917 40.3226 8.32283 38.8837 7.95877 36.7288L5.05831 19.561Z" stroke="white" stroke-width="3.30033"/>
<path fill-rule="evenodd" clip-rule="evenodd" d="M7.65231 14.6112C5.83693 15.2101 4.72747 17.1199 5.05809 19.0769L7.94704 36.1766C7.95043 36.1966 7.95395 36.2166 7.95761 36.2365L5.1405 19.562C4.77644 17.4071 6.15508 15.3522 8.21979 14.9722L30.5861 10.8562L30.4669 10.3564C30.0685 7.99806 26.0122 5.7554 21.6514 7.80038L7.65231 14.6112Z" fill="white"/>
<path d="M5.05809 19.0769L6.14285 18.8936L5.05809 19.0769ZM7.65231 14.6112L7.99701 15.6559L8.06717 15.6328L8.13361 15.6004L7.65231 14.6112ZM7.94704 36.1766L6.86227 36.3598L6.86228 36.3598L7.94704 36.1766ZM7.95761 36.2365L6.87559 36.4354L9.04238 36.0532L7.95761 36.2365ZM5.1405 19.562L6.22526 19.3787L5.1405 19.562ZM8.21979 14.9722L8.4189 16.0542H8.4189L8.21979 14.9722ZM30.5861 10.8562L30.7852 11.9382L31.9252 11.7284L31.6562 10.6009L30.5861 10.8562ZM30.4669 10.3564L29.3821 10.5397L29.3883 10.5759L29.3968 10.6117L30.4669 10.3564ZM21.6514 7.80038L21.1843 6.80433L21.1772 6.80767L21.1701 6.81111L21.6514 7.80038ZM6.14285 18.8936C5.89755 17.4417 6.72709 16.0749 7.99701 15.6559L7.30762 13.5664C4.94677 14.3454 3.5574 16.7982 3.97333 19.2601L6.14285 18.8936ZM9.0318 35.9933L6.14285 18.8936L3.97333 19.2601L6.86227 36.3598L9.0318 35.9933ZM9.03963 36.0377C9.03692 36.0229 9.03431 36.0081 9.0318 35.9933L6.86228 36.3598C6.86654 36.3851 6.87098 36.4103 6.87559 36.4354L9.03963 36.0377ZM9.04238 36.0532L6.22526 19.3787L4.05574 19.7453L6.87285 36.4198L9.04238 36.0532ZM6.22526 19.3787C5.95451 17.7762 6.98525 16.318 8.4189 16.0542L8.02067 13.8903C5.3249 14.3864 3.59836 17.0381 4.05574 19.7453L6.22526 19.3787ZM8.4189 16.0542L30.7852 11.9382L30.387 9.77422L8.02067 13.8903L8.4189 16.0542ZM29.3968 10.6117L29.516 11.1115L31.6562 10.6009L31.537 10.1011L29.3968 10.6117ZM22.1185 8.79644C24.0308 7.89968 25.8282 7.96119 27.1607 8.45798C28.5541 8.97746 29.2716 9.88523 29.3821 10.5397L31.5517 10.1731C31.2638 8.46924 29.7538 7.07651 27.9293 6.39632C26.0439 5.69343 23.6328 5.6561 21.1843 6.80433L22.1185 8.79644ZM8.13361 15.6004L22.1327 8.78966L21.1701 6.81111L7.17102 13.6219L8.13361 15.6004Z" fill="white"/>
<path d="M30.364 22.726C29.9878 20.4993 31.4124 18.3759 33.5459 17.9833L39.2782 16.9283C40.1729 16.7637 41.0261 17.3872 41.1839 18.321L41.9749 23.0031C42.1327 23.9369 41.5353 24.8274 40.6406 24.992L34.9082 26.0469C32.7747 26.4396 30.7402 24.9527 30.364 22.726Z" fill="white"/>
</svg>
