<svg width="42" height="42" viewBox="0 0 42 42" fill="none" xmlns="http://www.w3.org/2000/svg">
<rect x="7.50085" y="6.85693" width="27.6429" height="27.6429" rx="6.42857" stroke="black" stroke-width="1.92857" stroke-linecap="round" stroke-linejoin="round"/>
<rect x="7.50085" y="11.9998" width="27.6429" height="22.5" rx="6.42857" stroke="black" stroke-width="1.92857" stroke-linecap="round" stroke-linejoin="round"/>
<rect x="7.50085" y="17.1426" width="27.6429" height="17.3571" rx="6.42857" stroke="black" stroke-width="1.92857" stroke-linecap="round" stroke-linejoin="round"/>
<path d="M21.6437 19.7141C18.2151 22.9171 18.2151 28.0825 21.6437 31.2855C25.0723 28.0837 25.0723 22.9171 21.6437 19.7141Z" stroke="#FFCC00" stroke-width="1.92857" stroke-linecap="round" stroke-linejoin="round"/>
<path d="M21.6437 19.7141C18.4411 19.7141 15.858 22.2971 15.858 25.4998C15.858 28.7025 18.4411 31.2855 21.6437 31.2855C24.8464 31.2855 27.4295 28.7025 27.4295 25.4998C27.4295 22.2971 24.8464 19.7141 21.6437 19.7141V19.7141Z" stroke="#FFCC00" stroke-width="1.92857" stroke-linecap="round" stroke-linejoin="round"/>
<path d="M15.858 25.4998H27.4295" stroke="#FFCC00" stroke-width="1.92857" stroke-linecap="round" stroke-linejoin="round"/>
</svg>
