<svg width="48" height="48" viewBox="0 0 48 48" fill="none" xmlns="http://www.w3.org/2000/svg">
<rect x="8.25" y="7.5" width="32.25" height="32.25" rx="7.5" stroke="black" stroke-width="2.25" stroke-linecap="round" stroke-linejoin="round"/>
<rect x="8.25" y="13.5" width="32.25" height="26.25" rx="7.5" stroke="black" stroke-width="2.25" stroke-linecap="round" stroke-linejoin="round"/>
<rect x="8.25" y="19.5" width="32.25" height="20.25" rx="7.5" stroke="black" stroke-width="2.25" stroke-linecap="round" stroke-linejoin="round"/>
<path d="M24.75 22.5C20.75 26.2368 20.75 32.2632 24.75 36C28.75 32.2645 28.75 26.2368 24.75 22.5Z" stroke="#FFCC00" stroke-width="2.25" stroke-linecap="round" stroke-linejoin="round"/>
<path d="M24.75 22.5C21.0135 22.5 18 25.5135 18 29.25C18 32.9865 21.0135 36 24.75 36C28.4865 36 31.5 32.9865 31.5 29.25C31.5 25.5135 28.4865 22.5 24.75 22.5V22.5Z" stroke="#FFCC00" stroke-width="2.25" stroke-linecap="round" stroke-linejoin="round"/>
<path d="M18 29.25H31.5" stroke="#FFCC00" stroke-width="2.25" stroke-linecap="round" stroke-linejoin="round"/>
</svg>
