<svg width="48" height="48" viewBox="0 0 48 48" fill="none" xmlns="http://www.w3.org/2000/svg">
<path d="M9.76251 13.7736C10.3889 13.7736 10.8967 13.2658 10.8967 12.6395C10.8967 12.0131 10.3889 11.5053 9.76251 11.5053V13.7736ZM37.6057 37.967C37.6057 37.3406 37.0979 36.8328 36.4715 36.8328C35.8451 36.8328 35.3374 37.3406 35.3374 37.967H37.6057ZM35.7154 39.1353H17.5849V41.4036H35.7154V39.1353ZM8.13366 29.6841V13.3956H5.86536V29.6841H8.13366ZM7.75561 13.7736H9.76251V11.5053H7.75561V13.7736ZM35.3374 37.967V39.5134H37.6057V37.967H35.3374ZM17.5849 39.1353C12.3651 39.1353 8.13366 34.9039 8.13366 29.6841H5.86536C5.86536 36.1566 11.1124 41.4036 17.5849 41.4036V39.1353ZM35.7154 41.4036C36.7594 41.4036 37.6057 40.5573 37.6057 39.5134H35.3374C35.3374 39.3046 35.5066 39.1353 35.7154 39.1353V41.4036ZM8.13366 13.3956C8.13366 13.6044 7.9644 13.7736 7.75561 13.7736V11.5053C6.71166 11.5053 5.86536 12.3516 5.86536 13.3956H8.13366Z" fill="white"/>
<path fill-rule="evenodd" clip-rule="evenodd" d="M13.833 7C12.9978 7 12.3208 7.67703 12.3208 8.5122V27.99C12.3208 32.1658 15.706 35.551 19.8818 35.551H39.3596C40.1948 35.551 40.8718 34.874 40.8718 34.0388V17.5854C40.8718 11.7392 36.1326 7 30.2864 7H13.833ZM26.5914 28.322C30.4858 28.322 33.6428 25.165 33.6428 21.2706C33.6428 17.3762 30.4858 14.2192 26.5914 14.2192C22.697 14.2192 19.54 17.3762 19.54 21.2706C19.54 25.165 22.697 28.322 26.5914 28.322Z" fill="white"/>
<path d="M13.4549 8.5122C13.4549 8.30341 13.6242 8.13415 13.833 8.13415V5.86585C12.3715 5.86585 11.1867 7.05066 11.1867 8.5122H13.4549ZM13.4549 27.99V8.5122H11.1867V27.99H13.4549ZM19.8818 34.4169C16.3323 34.4169 13.4549 31.5395 13.4549 27.99H11.1867C11.1867 32.7922 15.0796 36.6852 19.8818 36.6852V34.4169ZM39.3596 34.4169H19.8818V36.6852H39.3596V34.4169ZM39.7377 34.0388C39.7377 34.2476 39.5684 34.4169 39.3596 34.4169V36.6852C40.8211 36.6852 42.006 35.5003 42.006 34.0388H39.7377ZM39.7377 17.5854V34.0388H42.006V17.5854H39.7377ZM30.2864 8.13415C35.5062 8.13415 39.7377 12.3656 39.7377 17.5854H42.006C42.006 11.1129 36.759 5.86585 30.2864 5.86585V8.13415ZM13.833 8.13415H30.2864V5.86585H13.833V8.13415ZM32.5087 21.2706C32.5087 24.5386 29.8594 27.1879 26.5914 27.1879V29.4562C31.1122 29.4562 34.777 25.7914 34.777 21.2706H32.5087ZM26.5914 15.3534C29.8594 15.3534 32.5087 18.0026 32.5087 21.2706H34.777C34.777 16.7499 31.1122 13.0851 26.5914 13.0851V15.3534ZM20.6742 21.2706C20.6742 18.0026 23.3234 15.3534 26.5914 15.3534V13.0851C22.0707 13.0851 18.4059 16.7499 18.4059 21.2706H20.6742ZM26.5914 27.1879C23.3234 27.1879 20.6742 24.5386 20.6742 21.2706H18.4059C18.4059 25.7914 22.0707 29.4562 26.5914 29.4562V27.1879Z" fill="white"/>
</svg>
