<?xml version="1.0" encoding="UTF-8"?>
<svg width="24px" height="21px" viewBox="0 0 24 21" version="1.1" xmlns="http://www.w3.org/2000/svg" xmlns:xlink="http://www.w3.org/1999/xlink">
    <title>interface</title>
    <g id="User-Side" stroke="none" stroke-width="1" fill="none" fill-rule="evenodd">
        <g id="iChat-/-User-/-FA-/-1280-/-Home-/-Queue" transform="translate(-1198.000000, -151.000000)" fill="#FFCC00">
            <g id="Chat-box" transform="translate(924.000000, 127.000000)">
                <g id="Hedear">
                    <g id="Message-Icon" transform="translate(268.000000, 16.000000)">
                        <path d="M25.078125,8.25 L10.921875,8.25 C8.20788572,8.25 6,10.5123623 6,13.2933155 L6,21.0826863 C6,23.3017076 7.42181395,25.2344157 9.48211669,25.8530098 L11.8591919,28.2889237 C11.9912109,28.4240126 12.1699219,28.5 12.3565064,28.5 C12.5429077,28.5 12.7218018,28.4240126 12.8536377,28.2889237 L15.0342407,26.0543297 L25.078125,26.0543297 C27.7921143,26.0543297 30,23.7919674 30,21.0110142 L30,13.2933155 C30,10.5123623 27.7921143,8.25 25.078125,8.25 Z M12.8323974,18.4255645 C12.8323974,18.0276154 13.1471557,17.7050908 13.5355224,17.7050908 L22.4644776,17.7050908 C22.8528442,17.7050908 23.1676026,18.0276154 23.1676026,18.4255645 C23.1676026,18.8235136 22.8528442,19.1460381 22.4644776,19.1460381 L13.5355224,19.1460381 C13.1471557,19.1460381 12.8323974,18.8235136 12.8323974,18.4255645 Z M22.4644776,16.5992389 L13.5355224,16.5992389 C13.1471557,16.5992389 12.8323974,16.2767143 12.8323974,15.8787652 C12.8323974,15.4810037 13.1471557,15.1582916 13.5355224,15.1582916 L22.4644776,15.1582916 C22.8528442,15.1582916 23.1676026,15.4810037 23.1676026,15.8787652 C23.1676026,16.2767143 22.8528442,16.5992389 22.4644776,16.5992389 Z" id="interface"></path>
                    </g>
                </g>
            </g>
        </g>
    </g>
</svg>