<svg width="48" height="48" viewBox="0 0 48 48" fill="none" xmlns="http://www.w3.org/2000/svg">
<path fill-rule="evenodd" clip-rule="evenodd" d="M36.0096 29.5507L36.0101 29.551L30.0208 39.9247C29.3592 41.0705 27.894 41.4631 26.7482 40.8016L25.7108 40.2026C24.7184 41.9214 22.5206 42.5103 20.8018 41.518C19.083 40.5256 18.4941 38.3279 19.4865 36.6091L16.3743 34.8123L16.3747 34.8117L8.07537 30.0201C6.92951 29.3586 6.5369 27.8934 7.19847 26.7476L7.7974 25.7102C6.07861 24.7179 5.48971 22.5201 6.48205 20.8013C7.4744 19.0826 9.67221 18.4937 11.391 19.486L17.9794 8.07533C18.6409 6.92949 20.1061 6.53689 21.252 7.19844L22.2894 7.79736C23.2817 6.07861 25.4795 5.48972 27.1983 6.48204C28.9171 7.47437 29.506 9.67213 28.5137 11.3909L39.9246 17.9785C41.0705 18.6401 41.4631 20.1053 40.8015 21.2511L40.2026 22.2885C41.9214 23.2808 42.5103 25.4786 41.5179 27.1973C40.5256 28.9161 38.3278 29.505 36.609 28.5126L36.0096 29.5507ZM26.4389 10.1931L25.2411 12.2678L28.3528 14.0643L23.5614 22.3629L22.5243 21.7642C23.5166 20.0455 22.9277 17.8477 21.2089 16.8554C19.4901 15.863 17.2923 16.4519 16.3 18.1707L15.2628 17.5719L20.0541 9.27317L23.1663 11.0699L24.3642 8.99521C24.6949 8.42229 25.4275 8.22599 26.0005 8.55677C26.5734 8.88754 26.7697 9.62013 26.4389 10.1931ZM28.7479 25.3583L28.7484 25.3575L25.6367 23.561L26.2354 22.5239C27.9542 23.5162 30.152 22.9274 31.1444 21.2086C32.1367 19.4898 31.5478 17.2921 29.829 16.2997L30.428 15.2624L38.7268 20.0533L36.93 23.1653L39.0047 24.3632C39.5777 24.694 39.774 25.4265 39.4432 25.9995C39.1124 26.5724 38.3798 26.7687 37.8069 26.4379L35.7321 25.2401L33.9353 28.3521L30.8231 26.5554L29.6253 28.6301C29.2945 29.203 28.5619 29.3993 27.9889 29.0686C27.4163 28.7379 27.2199 28.0058 27.5501 27.433L27.5506 27.4333L28.7485 25.3586L28.7479 25.3583ZM25.4753 26.2352L24.4384 25.6366L22.6416 28.7486L20.5669 27.5508C19.9939 27.22 19.2613 27.4163 18.9305 27.9892C18.5998 28.5621 18.796 29.2945 19.3687 29.6254L19.3691 29.6247L21.4439 30.8225L19.647 33.9355L22.7591 35.7322L21.5612 37.8069C21.2305 38.3799 21.4268 39.1125 21.9997 39.4432C22.5726 39.774 23.3052 39.5777 23.636 39.0048L24.8339 36.9301L27.946 38.7268L32.7375 30.4279L31.6996 29.8287C30.707 31.5469 28.5096 32.1355 26.7911 31.1433C25.0725 30.1511 24.4836 27.9538 25.4753 26.2352ZM26.5564 17.1766L28.6312 18.3745C29.2041 18.7052 29.4004 19.4378 29.0696 20.0108C28.7388 20.5837 28.0062 20.78 27.4333 20.4492L25.3582 19.2508L26.5564 17.1766ZM19.2518 22.6412L17.1769 21.4436L18.3748 19.3688C18.7056 18.7959 19.4381 18.5993 20.0111 18.9301C20.584 19.2609 20.7803 19.9935 20.4495 20.5664L19.2518 22.6412ZM14.0646 19.6467L12.2679 22.7586L10.1931 21.5607C9.62021 21.23 8.8876 21.4263 8.55682 21.9992C8.22604 22.5721 8.42234 23.3047 8.99527 23.6355L11.07 24.8333L9.27324 27.9454L17.5723 32.7368L18.1709 31.7001C16.4523 30.7077 15.8635 28.5101 16.8558 26.7914C17.8481 25.0727 20.0457 24.4838 21.7645 25.4759L22.3637 24.4381L14.0646 19.6467Z" fill="white"/>
</svg>
