<svg width="48" height="48" viewBox="0 0 48 48" fill="none" xmlns="http://www.w3.org/2000/svg">
<mask id="path-1-inside-1_496_3490" fill="white">
<path d="M10.4476 17.07L10.5192 16.8776C11.1318 15.2321 12.839 14.2654 14.5653 14.5865C18.9772 15.4074 22.9255 17.8412 25.6411 21.4139L26.0614 21.9668C27.0223 23.2309 27.0294 24.9785 26.0789 26.2504C23.3738 29.87 19.3929 32.3248 14.9441 33.1165L14.6656 33.1661C12.8844 33.4831 11.135 32.466 10.5292 30.7613L10.3491 30.2544C8.83167 25.9845 8.86655 21.3167 10.4476 17.07Z"/>
</mask>
<path d="M10.4476 17.07L10.5192 16.8776C11.1318 15.2321 12.839 14.2654 14.5653 14.5865C18.9772 15.4074 22.9255 17.8412 25.6411 21.4139L26.0614 21.9668C27.0223 23.2309 27.0294 24.9785 26.0789 26.2504C23.3738 29.87 19.3929 32.3248 14.9441 33.1165L14.6656 33.1661C12.8844 33.4831 11.135 32.466 10.5292 30.7613L10.3491 30.2544C8.83167 25.9845 8.86655 21.3167 10.4476 17.07Z" fill="white"/>
<path d="M10.5192 16.8776L12.4957 17.6135L12.4957 17.6135L10.5192 16.8776ZM10.4476 17.07L8.47106 16.3341L8.47106 16.3341L10.4476 17.07ZM10.3491 30.2544L8.36177 30.9606L8.36177 30.9606L10.3491 30.2544ZM10.5292 30.7613L12.5165 30.055L12.5165 30.055L10.5292 30.7613ZM26.0614 21.9668L27.7405 20.6906L27.7405 20.6906L26.0614 21.9668ZM25.6411 21.4139L23.9621 22.6901L23.9621 22.6901L25.6411 21.4139ZM14.6656 33.1661L14.2961 31.0897H14.2961L14.6656 33.1661ZM14.9441 33.1165L15.3136 35.1929H15.3136L14.9441 33.1165ZM26.0789 26.2504L27.7683 27.5129V27.5129L26.0789 26.2504ZM14.5653 14.5865L14.1795 16.66L14.5653 14.5865ZM8.54267 16.1418L8.47106 16.3341L12.4241 17.8058L12.4957 17.6135L8.54267 16.1418ZM8.36177 30.9606L8.54189 31.4675L12.5165 30.055L12.3363 29.5482L8.36177 30.9606ZM27.7405 20.6906L27.3202 20.1376L23.9621 22.6901L24.3824 23.2431L27.7405 20.6906ZM15.0351 35.2425L15.3136 35.1929L14.5745 31.0401L14.2961 31.0897L15.0351 35.2425ZM15.3136 35.1929C20.2898 34.3074 24.7426 31.5616 27.7683 27.5129L24.3895 24.9879C22.0051 28.1784 18.496 30.3422 14.5745 31.0401L15.3136 35.1929ZM27.3202 20.1376C24.2875 16.1477 19.8781 13.4297 14.9511 12.5131L14.1795 16.66C18.0763 17.385 21.5636 19.5346 23.9621 22.6901L27.3202 20.1376ZM8.47106 16.3341C6.71711 21.0453 6.67841 26.2237 8.36177 30.9606L12.3363 29.5482C10.9849 25.7453 11.016 21.588 12.4241 17.8058L8.47106 16.3341ZM24.3824 23.2431C24.7737 23.758 24.7766 24.4698 24.3895 24.9879L27.7683 27.5129C29.2821 25.4873 29.2708 22.7038 27.7405 20.6906L24.3824 23.2431ZM8.54189 31.4675C9.4929 34.1436 12.239 35.7401 15.0351 35.2425L14.2961 31.0897C13.5297 31.226 12.7771 30.7885 12.5165 30.055L8.54189 31.4675ZM12.4957 17.6135C12.7507 16.9286 13.4611 16.5263 14.1795 16.66L14.9511 12.5131C12.2169 12.0044 9.51298 13.5355 8.54267 16.1418L12.4957 17.6135Z" fill="white" mask="url(#path-1-inside-1_496_3490)"/>
<path d="M13.541 9.47433L12.6636 8.88939C12.4479 9.21298 12.4278 9.62903 12.6113 9.97192C12.7948 10.3148 13.1521 10.5289 13.541 10.5289V9.47433ZM20.7571 7.06897L20.6264 8.11537L20.7571 7.06897ZM31.3407 22.4633H32.3952C32.3952 22.389 32.3874 22.3149 32.3718 22.2423L31.3407 22.4633ZM14.4184 10.0593C14.7245 9.6001 15.5067 9.0056 16.6917 8.57408C17.8433 8.15474 19.2384 7.94202 20.6264 8.11537L20.8878 6.02258C19.1319 5.8033 17.4 6.07165 15.9701 6.59234C14.5736 7.10086 13.3196 7.90535 12.6636 8.88939L14.4184 10.0593ZM20.6264 8.11537C24.2138 8.56339 28.8441 10.8487 32.6 13.9005C34.4659 15.4166 36.0718 17.0869 37.2028 18.7553C38.3419 20.4354 38.9454 22.0327 38.9454 23.4254H41.0545C41.0545 21.4506 40.2149 19.4397 38.9485 17.5718C37.6742 15.6922 35.9126 13.8746 33.93 12.2636C29.9887 9.06126 24.9975 6.53583 20.8878 6.02258L20.6264 8.11537ZM38.9454 23.4254C38.9454 25.3329 38.3262 26.1835 37.7527 26.604C37.1176 27.0698 36.3052 27.1816 35.6703 27.1816V29.2907C36.4787 29.2907 37.831 29.162 39 28.3048C40.2305 27.4024 41.0545 25.8476 41.0545 23.4254H38.9454ZM35.6703 27.1816C34.8095 27.1816 32.3952 26.2105 32.3952 22.4633H30.2862C30.2862 27.3753 33.6447 29.2907 35.6703 29.2907V27.1816ZM32.3718 22.2423C31.9531 20.2884 30.7246 18.4647 29.1846 16.8618C27.6337 15.2477 25.6944 13.7821 23.7213 12.5489C21.7454 11.314 19.706 10.2937 17.9345 9.57883C16.2097 8.88285 14.6026 8.41981 13.541 8.41981V10.5289C14.1632 10.5289 15.4425 10.8476 17.1453 11.5347C18.8014 12.2029 20.7309 13.167 22.6036 14.3374C24.479 15.5096 26.268 16.8703 27.6638 18.323C29.0703 19.787 30.0067 21.2707 30.3096 22.6842L32.3718 22.2423Z" fill="white"/>
<path d="M13.541 38.2708L12.6636 38.8558C12.4479 38.5322 12.4278 38.1161 12.6113 37.7733C12.7948 37.4304 13.1521 37.2163 13.541 37.2163V38.2708ZM20.7571 40.6762L20.6264 39.6298L20.7571 40.6762ZM38.9454 24.3198C38.9454 23.7374 39.4176 23.2652 40 23.2652C40.5824 23.2652 41.0545 23.7374 41.0545 24.3198H38.9454ZM30.3096 25.061C30.4316 24.4915 30.9922 24.1288 31.5616 24.2508C32.1311 24.3728 32.4938 24.9334 32.3718 25.5029L30.3096 25.061ZM14.4184 37.6859C14.7245 38.1451 15.5067 38.7396 16.6917 39.1711C17.8433 39.5904 19.2384 39.8032 20.6264 39.6298L20.8878 41.7226C19.1319 41.9419 17.4 41.6735 15.9701 41.1528C14.5736 40.6443 13.3196 39.8398 12.6636 38.8558L14.4184 37.6859ZM20.6264 39.6298C24.2138 39.1818 28.8441 36.8965 32.6 33.8447C34.4659 32.3286 36.0718 30.6582 37.2028 28.9899C38.3419 27.3097 38.9454 25.7125 38.9454 24.3198H41.0545C41.0545 26.2946 40.2149 28.3054 38.9485 30.1733C37.6742 32.053 35.9126 33.8706 33.93 35.4816C29.9887 38.6839 24.9975 41.2094 20.8878 41.7226L20.6264 39.6298ZM32.3718 25.5029C31.9531 27.4568 30.7246 29.2805 29.1846 30.8834C27.6337 32.4975 25.6944 33.9631 23.7213 35.1962C21.7454 36.4312 19.706 37.4515 17.9345 38.1663C16.2097 38.8623 14.6026 39.3254 13.541 39.3254V37.2163C14.1632 37.2163 15.4425 36.8976 17.1453 36.2105C18.8014 35.5423 20.7309 34.5782 22.6036 33.4078C24.479 32.2356 26.268 30.8748 27.6638 29.4222C29.0703 27.9582 30.0067 26.4745 30.3096 25.061L32.3718 25.5029Z" fill="white"/>
</svg>
