<svg width="42" height="42" viewBox="0 0 42 42" fill="none" xmlns="http://www.w3.org/2000/svg">
<path d="M27.8906 28.875H30.375C31.7212 28.875 32.8125 27.765 32.8125 26.3958V13.7868C32.8125 13.1293 32.5554 12.499 32.0983 12.034L27.4329 7.2889C26.9759 6.82393 26.356 6.56264 25.7096 6.5625H18.1875C16.8413 6.5625 15.75 7.67246 15.75 9.04167V10.1719" stroke="black" stroke-width="1.96875" stroke-linecap="round" stroke-linejoin="round"/>
<path d="M24.8796 17.9403L20.2142 13.1951V13.1951C19.7572 12.7302 19.1373 12.4689 18.4909 12.4688H10.9688V12.4688C9.62256 12.4688 8.53125 13.5787 8.53125 14.9479V32.3021V32.3021C8.53125 33.6713 9.62256 34.7813 10.9688 34.7813H23.1562V34.7813C24.5024 34.7813 25.5938 33.6713 25.5938 32.3021V19.693V19.6936C25.5938 19.0361 25.337 18.4056 24.8799 17.9406L24.8796 17.9403Z" stroke="black" stroke-width="1.96875" stroke-linecap="round" stroke-linejoin="round"/>
<path d="M21.022 24.9375H13.103C12.7527 24.9375 12.4688 25.1983 12.4688 25.52V30.9175C12.4688 31.2392 12.7527 31.5 13.103 31.5H21.022C21.3723 31.5 21.6562 31.2392 21.6562 30.9175V25.52C21.6562 25.1983 21.3723 24.9375 21.022 24.9375Z" stroke="#FFCC00" stroke-width="1.96875" stroke-linecap="round" stroke-linejoin="round"/>
<path d="M13.125 28.2188H15.75" stroke="#FFCC00" stroke-width="1.96875" stroke-linecap="round" stroke-linejoin="round"/>
<path d="M15.75 30.8438V28.2188" stroke="#FFCC00" stroke-width="1.96875" stroke-linecap="round" stroke-linejoin="round"/>
<path d="M18.375 24.9375V30.8438" stroke="#FFCC00" stroke-width="1.96875" stroke-linecap="round" stroke-linejoin="round"/>
</svg>
