<svg width="48" height="48" viewBox="0 0 48 48" fill="none" xmlns="http://www.w3.org/2000/svg">
<path d="M40.5 25.98C40.5 29.4302 38.6549 32.4887 35.809 34.4171L33.7137 38.8616C33.229 39.871 31.8217 40.0669 31.0867 39.2082L28.7725 36.5263C24.9884 36.5263 21.6109 34.9143 19.5 32.3982L20.9542 30.7108C27.4278 30.7108 33 26.081 33 20.2504C33 18.6684 33.3853 17.0913 32.6817 15.7504C37.7949 16.8803 40.5 21.0383 40.5 25.98Z" stroke="black" stroke-width="2.25"/>
<path d="M33 19.2133C33 25.689 27.456 30.9265 20.625 30.9265L19.0905 32.8006L18.183 33.9051C17.4075 34.8422 15.9225 34.6413 15.411 33.5202L13.2 28.5838C10.197 26.442 8.25 23.0452 8.25 19.2133C8.25 12.7375 13.794 7.5 20.625 7.5C25.608 7.5 29.9145 10.2945 31.845 14.3104C32.5875 15.7997 33 17.4563 33 19.2133Z" stroke="black" stroke-width="2.25"/>
<path d="M16.5 16.5H24.75" stroke="#FFCC00" stroke-width="2.25" stroke-linecap="round"/>
<path d="M16.5 23.25H24.75" stroke="#FFCC00" stroke-width="2.25" stroke-linecap="round"/>
</svg>
